# xmcd CD Database Entry
#
# Track frame offsets:
# 150
# 8245
# 27449
# 41772
# 53049
# 63424
# 77336
# 109198
# 120136
# 137367
# 147899
# 160026
# 169381
# 183616
# 194166
# 207684
# 221880
# 243194
# 264508
#
# Disc length: 3649 seconds
#
# Revision: 2
# Processed by: cddbd v1.4b41PL3 Copyright (c) Steve Scherf et al.
# Submitted via: tcd 2.0b
#
DISCID=130e3f13
DTITLE=모름 - 모름
DYEAR=1900
DGENRE=
TTITLE0=1번 트랙
TTITLE1=2번 트랙
TTITLE2=3번 트랙
TTITLE3=4번 트랙
TTITLE4=5번 트랙
TTITLE5=6번 트랙
TTITLE6=7번 트랙
TTITLE7=8번 트랙
TTITLE8=9번 트랙
TTITLE9=10번 트랙
TTITLE10=11번 트랙
TTITLE11=12번 트랙
TTITLE12=13번 트랙
TTITLE13=14번 트랙
TTITLE14=15번 트랙
TTITLE15=16번 트랙
TTITLE16=17번 트랙
TTITLE17=18번 트랙
TTITLE18=19번 트랙
EXTD=
EXTT0=
EXTT1=
EXTT2=
EXTT3=
EXTT4=
EXTT5=
EXTT6=
EXTT7=
EXTT8=
EXTT9=
EXTT10=
EXTT11=
EXTT12=
EXTT13=
EXTT14=
EXTT15=
EXTT16=
EXTT17=
EXTT18=
PLAYORDER=
